# xmcd
#
# Track frame offsets:
#	150
#	14976
#	31057
#	51461
#	67771
#	87093
#	102983
#	119958
#	142137
#	170559
#	189470
#	211481
#	226596
#	243951
#
# Disc length: 3521 seconds
#
# Revision: 1
# Processed by: cddbd v1.5.2PL0 Copyright (c) Steve Scherf et al.
# Submitted via: audiograbber 1.83.01
#
DISCID=c80dbf0e
DTITLE=Cascades - After The Rain
DYEAR=2005
DGENRE=Oldies
TTITLE0=Good Day For The Blues
TTITLE1=That's Not What Lovin' Is
TTITLE2=I Just Came By To Get A Smile
TTITLE3=Grandpa's Radio
TTITLE4=There'll Be Love
TTITLE5=Hurtin' Songs
TTITLE6=Overnight Success
TTITLE7=Lisa's Eyes
TTITLE8=Who Hurts The Most
TTITLE9=Save Some For Me
TTITLE10=We've Still Got Magic
TTITLE11=Lovers Without Love
TTITLE12=Everyday Working Man
TTITLE13=Rhythm Of The Rain  (2005)
EXTD=
EXTT0=
EXTT1=
EXTT2=
EXTT3=
EXTT4=
EXTT5=
EXTT6=
EXTT7=
EXTT8=
EXTT9=
EXTT10=
EXTT11=
EXTT12=
EXTT13=
PLAYORDER=
